# xmcd
#
# Track frame offsets:
#  150
#  17624
#  34928
#  48386
#  59424
#  74292
#  89257
#  103204
#  122359
#  135674
#  148421
#  187284
#  207366
#  230924
#  245139
#  269289
#  292317
#  311291
#  333211
#  346391
#
# Disc length: 4747 seconds
#
# Revision: 0
# Processed by: cddbd v1.4PL0 Copyright (c) Steve Scherf et al.
# Submitted via: AltoMP3_Maker 3.0
#
DISCID=44128914
DTITLE=The Climax Chicago Blues Band - The Climax Chicago Blues Band - Stamp Album
DYEAR=1900
DGENRE=
TTITLE0=mean old world
TTITLE1=insurance
TTITLE2=going down this road
TTITLE3=you'v been drinking
TTITLE4=don't start m talkin'
TTITLE5=wee baby blues
TTITLE6=twenty past one
TTITLE7=a stranger in your town
TTITLE8=how many more years
TTITLE9=looking for my baby
TTITLE10=and lonly
TTITLE11=using the power
TTITLE12=mr. goodtime
TTITLE13=i am constant
TTITLE14=running out of time
TTITLE15=sky high
TTITLE16=rusty nall - the devil knows
TTITLE17=loosen up
TTITLE18=spirit returning
TTITLE19=cobra
EXTD=
EXTT0=
EXTT1=
EXTT2=
EXTT3=
EXTT4=
EXTT5=
EXTT6=
EXTT7=
EXTT8=
EXTT9=
EXTT10=
EXTT11=
EXTT12=
EXTT13=
EXTT14=
EXTT15=
EXTT16=
EXTT17=
EXTT18=
EXTT19=
PLAYORDER=
